<?xml version="1.0" encoding="utf-8"?>
<!-- Generator: Adobe Illustrator 26.0.1, SVG Export Plug-In . SVG Version: 6.00 Build 0)  -->
<svg version="1.1" xmlns="http://www.w3.org/2000/svg" xmlns:xlink="http://www.w3.org/1999/xlink" x="0px" y="0px"
	 viewBox="0 0 2257.71 1728" style="enable-background:new 0 0 2257.71 1728;" xml:space="preserve">
<style type="text/css">
	.st0{fill:none;stroke:#000000;stroke-width:83;stroke-miterlimit:10;}
	.st1{fill:none;stroke:#000000;stroke-width:83;stroke-linecap:round;stroke-miterlimit:10;}
	.st2{display:none;}
	.st3{display:inline;}
	.st4{fill:none;stroke:#000000;stroke-width:83;stroke-linecap:round;stroke-linejoin:round;stroke-miterlimit:136;}
</style>
<g id="Layer_2">
	<path class="st0" d="M437.48,228.28h1379.51c11.1,0.74,60.66,5.24,100.14,47.04c37.72,39.94,40.7,86.89,41.1,98.57
		c0,327.57,0,655.13,0,982.7c-1.19,14.51-6.26,52.21-35.12,87.37c-36.48,44.43-85.47,53.74-98.15,55.76
		c-462.41,0-924.82,0-1387.23,0c-12.61-0.87-55.56-5.39-92.17-40.07c-45.26-42.88-46.1-98.97-46.08-108.77
		c0-333.37,0-666.75,0-1000.12c2.25-12.17,11.6-54.42,50.57-87.37C385.65,233.27,424.48,229.11,437.48,228.28z"/>
	<line class="st0" x1="340.63" y1="452.29" x2="1923.52" y2="452.29"/>
	<circle class="st0" cx="739.12" cy="781.32" r="131.14"/>
	<line class="st1" x1="1243.77" y1="748.43" x2="1736.15" y2="748.43"/>
	<line class="st1" x1="1243.77" y1="975.57" x2="1736.15" y2="975.57"/>
	<line class="st1" x1="1243.77" y1="1198.43" x2="1736.15" y2="1198.43"/>
	<path class="st1" d="M487.45,1250.93c-2.06-11.04-10.32-63.05,30.86-111.91c35.11-41.66,84.36-55.18,99.32-58.77
		c83.57,0,167.14,0,250.71,0c18.3,6.47,58.24,23.06,89.68,59.58c39.86,46.3,40.21,94.62,39.54,110.3"/>
	<path class="st1" d="M927.16,1179.57"/>
</g>
<g id="Layer_3" class="st2">
	<g class="st3">
		<path class="st4" d="M320.68,1503.14v-885.8c5.09-16.47,17.53-48.55,47.86-77.84c23.38-22.58,47.87-34.31,63.25-40.28
			c231.82-91.45,463.64-182.91,695.46-274.36l720.43,284.99c11.25,3.99,43.18,16.92,66.29,50.28
			c20.49,29.57,22.81,58.97,23.07,70.97c0,290.68,0,581.37,0,872.05"/>
		<polygon class="st4" points="587.79,743.61 1678.29,743.61 1678.29,1498 579.43,1498 		"/>
		<line class="st4" x1="623.46" y1="990.71" x2="1634.25" y2="990.71"/>
		<line class="st4" x1="623.46" y1="1246.21" x2="1634.25" y2="1246.21"/>
	</g>
</g>
<g id="Layer_4">
</g>
</svg>
