<?xml version="1.0" encoding="utf-8"?>
<!-- Generator: Adobe Illustrator 26.0.1, SVG Export Plug-In . SVG Version: 6.00 Build 0)  -->
<svg version="1.1" xmlns="http://www.w3.org/2000/svg" xmlns:xlink="http://www.w3.org/1999/xlink" x="0px" y="0px"
	 viewBox="0 0 2257.71 1728" style="enable-background:new 0 0 2257.71 1728;" xml:space="preserve">
<style type="text/css">
	.st0{display:none;}
	.st1{display:inline;}
	.st2{fill:none;stroke:#000000;stroke-width:83;stroke-miterlimit:10;}
	.st3{fill:none;stroke:#000000;stroke-width:83;stroke-linecap:round;stroke-miterlimit:10;}
	.st4{fill:none;stroke:#000000;stroke-width:83;stroke-linecap:round;stroke-linejoin:round;stroke-miterlimit:136;}
</style>
<g id="Layer_2" class="st0">
	<g class="st1">
		<path class="st2" d="M534.11,316.71h1186.71c9.55,0.63,52.18,4.51,86.14,40.5c32.44,34.39,35.01,74.81,35.36,84.86
			c0,282,0,564,0,846c-1.03,12.49-5.39,44.95-30.21,75.21c-31.38,38.25-73.53,46.27-84.43,48c-397.79,0-795.57,0-1193.36,0
			c-10.85-0.75-47.8-4.64-79.29-34.5c-38.93-36.91-39.66-85.2-39.64-93.64c0-287,0-574,0-861c1.94-10.47,9.98-46.85,43.5-75.21
			C489.52,321.01,522.92,317.43,534.11,316.71z"/>
		<line class="st2" x1="456.54" y1="484.71" x2="1800.96" y2="484.71"/>
		<circle class="st2" cx="878.04" cy="774.75" r="131.14"/>
		<line class="st3" x1="1296.54" y1="733.29" x2="1628.89" y2="733.29"/>
		<line class="st3" x1="1296.54" y1="903.64" x2="1628.89" y2="903.64"/>
		<line class="st3" x1="1296.54" y1="1070.79" x2="1628.89" y2="1070.79"/>
		<path class="st3" d="M626.36,1244.36c-2.06-11.04-10.32-63.05,30.86-111.91c35.11-41.66,84.36-55.18,99.32-58.77
			c83.57,0,167.14,0,250.71,0c18.3,6.47,58.24,23.06,89.68,59.58c39.86,46.3,40.21,94.62,39.54,110.3"/>
		<path class="st3" d="M1066.07,1173"/>
	</g>
</g>
<g id="Layer_3">
	<g>
		<path class="st4" d="M320.68,1503.14v-885.8c5.09-16.47,17.53-48.55,47.86-77.84c23.38-22.58,47.87-34.31,63.25-40.28
			c231.82-91.45,463.64-182.91,695.46-274.36l720.43,284.99c11.25,3.99,43.18,16.92,66.29,50.28
			c20.49,29.57,22.81,58.97,23.07,70.97c0,290.68,0,581.37,0,872.05"/>
		<polygon class="st4" points="587.79,743.61 1678.29,743.61 1678.29,1498 579.43,1498 		"/>
		<line class="st4" x1="623.46" y1="990.71" x2="1634.25" y2="990.71"/>
		<line class="st4" x1="623.46" y1="1246.21" x2="1634.25" y2="1246.21"/>
	</g>
</g>
</svg>
